<?xml version="1.0" encoding="utf-8"?>
<!-- Generator: Adobe Illustrator 19.2.1, SVG Export Plug-In . SVG Version: 6.00 Build 0)  -->
<svg version="1.1" id="Ebene_1" xmlns="http://www.w3.org/2000/svg" xmlns:xlink="http://www.w3.org/1999/xlink" x="0px" y="0px"
	 viewBox="0 0 256 256" style="enable-background:new 0 0 256 256;" xml:space="preserve">
<style type="text/css">
	.st0{fill:#CDCCCC;}
	.st1{fill:#999999;}
	.st2{fill:#FFFFFF;}
	.st3{fill:#706F6F;}
	.st4{fill:#950A2B;}
</style>
<polyline class="st0" points="104.9,25.6 99.8,43.9 93.2,45.7 79.3,50.2 76,55.3 77.5,60.1 82,65.8 91.7,71.3 99.8,74 98.3,79.7 
	99.8,89 74.8,92.3 90.2,108.5 83.5,111.9 70.6,117 63.4,121.8 58.9,129 55.6,146.4 52.3,159.1 49.9,171.4 49.9,176.8 55,187.3 
	69.4,204.2 67.3,162.7 69.4,157 76.3,153.7 186.1,153.4 191.2,154.6 195.4,158.5 193.6,203.6 193.9,205.1 211.3,181.6 213.8,175.3 
	204.7,134.1 199,122.4 193.3,117.6 173.2,109.8 186.7,92.9 164.4,89.3 163.8,74 177.7,68.6 185.5,61.3 187.3,55.3 185.5,50.2 
	176.2,46.9 163.8,44.8 156,22.2 153.6,17.7 149.8,15.4 147,15.6 142.2,16.8 136.5,19.2 131.2,21.6 126.5,19.2 120.5,16.8 
	114.2,15.3 111.5,17.4 109.1,17.7 "/>
<polygon class="st1" points="131.1,20.6 123.4,17.3 117.4,15.6 110.8,16.6 106.1,21.9 100.5,40.4 99,44.5 93.2,45.7 82.4,48.1 
	76.6,52.1 75.3,55.3 77.8,62.2 87.5,70 109,77.5 134.5,79.5 154.4,77.3 169,72.6 177.9,68 184.2,63.4 187.4,57 185.3,51.2 177,47.7 
	166.3,45.5 163.3,43.8 156.3,23.3 152.9,16.9 149.8,15.4 141.2,16.9 137.6,18.1 "/>
<polygon class="st2" points="68.9,157 67.8,165.6 69.3,194 70.4,220.1 72.7,227.9 73.1,229.2 69.4,234.2 70.5,240.7 75.9,244 
	185.6,243.4 192.2,240.8 193,234.6 189.7,229.9 188.7,228.5 191.6,225.7 195,161.6 193.3,156.4 188.6,154.2 74.9,153.6 "/>
<path class="st3" d="M193.2,222.8l0.7-16.1l0.1-0.2l17.3-22.8c2.6-3.5,3.6-8,2.7-12.3L206,133c-1.8-8.7-8.3-16-16.7-18.9
	c-3.2-1.1-6.6-2.3-10.7-3.7l-4.3-1.5l3.2-3.2c3.9-3.9,7.9-7.8,11.9-11.6c0.3-0.3,0.5-0.8,0.3-1.2c-0.1-0.4-0.5-0.8-0.9-0.9
	c-7.1-1.4-14.2-2.6-21.4-3.5l-2.9-0.4l0.4-2.9c0.3-2,0.4-4,0.4-6v-4.1l1.9-0.7c13.1-4.9,21.3-12,21.3-18.4c0-4-2.3-9.6-21.9-12.2
	l-1.9-0.3l-0.5-1.9c-2.1-8-4.8-15.6-7.4-21.3c-1.8-4-4.5-5.5-6.5-6.1c-1-0.3-2.1-0.5-3.3-0.5c-4.6,0-9.6,2.4-12.9,4.4
	c-0.8,0.5-1.8,0.8-2.8,0.8c-1,0-1.9-0.2-2.7-0.7c-3.2-1.9-8.1-4.1-12.7-4.1c-1.3,0-2.5,0.2-3.7,0.5c-2.9,0.9-5.2,3.1-6.6,6.3
	c-3.2,7.2-5.7,15.2-7.1,20.7l-0.5,1.9L96,44c-19.6,2.6-21.9,8.2-21.9,12.2c0,6.5,8.2,13.5,21.3,18.4l1.9,0.7v4.1c0,2,0.1,4,0.4,6
	l0.4,2.9l-2.9,0.4C88.1,89.4,81,90.6,73.9,92c-0.5,0.1-0.8,0.4-0.9,0.9c-0.1,0.4,0,0.9,0.3,1.2c4,3.8,8,7.7,11.9,11.6l3.2,3.2
	l-4.3,1.5c-4,1.4-7.5,2.6-10.7,3.7c-8.5,2.9-14.9,10.1-16.7,18.9l-8.1,38.5c-0.9,4.3,0.1,8.8,2.7,12.3l17.4,23l0.7,16.1
	c0.1,1.4,0.5,2.8,1.3,4l1.3,1.9l-1.6,1.6c-1.5,1.6-2.4,3.6-2.4,5.8c0,4.5,3.7,8.2,8.2,8.2h110.3c4.5,0,8.2-3.7,8.2-8.2
	c0-2.2-0.8-4.2-2.4-5.8l-1.6-1.6l1.3-1.9C192.7,225.6,193.2,224.2,193.2,222.8z M92.8,70.9C82.7,66.5,76.6,61,76.6,56.1
	c0-4.2,5-7.1,15.4-9c0.4-0.1,0.8-0.1,1.2-0.2l4.1-0.7l-0.8,4.1c-0.7,3.3-0.8,4.9-0.8,5.4c0,0.7,0.6,1.2,1.2,1.2
	c0.7,0,1.2-0.5,1.2-1.2l0-0.1c0.1-2.7,3.8-20.3,9.7-33.4c1.2-2.6,2.9-4.3,5.1-5c3.5-1.1,8.7,0.1,14.3,3.3c1.2,0.7,2.6,1,4,1
	c1.5,0,2.9-0.4,4.1-1.1c5.6-3.4,10.7-4.8,14.2-3.7c2.2,0.7,3.8,2.2,5,4.8c6.4,14,10,31.9,10,34.1l0,0.1c0,0.7,0.6,1.2,1.2,1.2
	c0.7,0,1.2-0.6,1.2-1.2c0-0.6-0.2-2.3-0.8-5.4l-0.8-4.1l4.1,0.7c0.4,0.1,0.8,0.1,1.2,0.2c10.3,1.9,15.4,4.8,15.4,9
	c0,4.8-6.1,10.4-16.2,14.8c-10.9,4.7-24.6,7.3-38.5,7.3C117.4,78.2,103.7,75.6,92.8,70.9z M162.9,76.1l-0.1,3.8
	c-0.2,14.3-7.7,28-20.1,36.7l-4.4,3.1c-2,1.4-4.4,2.1-7,2.1c-2.6,0-5.1-0.8-7-2.1l-4.4-3.1c-12.4-8.7-19.9-22.4-20.1-36.7l-0.1-3.8
	l3.7,1c8.8,2.3,18.4,3.6,27.9,3.6s19.1-1.2,27.9-3.6L162.9,76.1z M66.5,161l1.9,41.4l-15.2-20.1c-2.2-2.9-3-6.7-2.3-10.3l8.1-38.5
	c1.7-7.9,7.5-14.4,15.1-17.1c4.8-1.6,9.6-3.3,14.3-4.9l1.8-0.6l1.3,1.3c2.6,2.8,5.1,5.4,7.4,8c0.4,0.5,1.3,0.5,1.7,0.1
	c0.5-0.5,0.5-1.2,0.1-1.7c-6.4-7.1-13-13.9-20-20.8l-4-3.9l5.5-1c4.6-0.8,9.4-1.5,14.1-2.1l2.4-0.3l0.7,2.3
	c3.2,10.2,10,19.4,19.1,25.7l4.4,3.1c2.4,1.7,5.4,2.6,8.4,2.6c3.1,0,6-0.9,8.4-2.6l4.4-3.1c9.1-6.4,15.9-15.5,19.1-25.8l0.7-2.3
	l2.4,0.3c4.7,0.6,9.5,1.3,14.1,2.1l5.5,1l-4,3.9c-7.1,6.9-13.6,13.7-20,20.8c-0.5,0.5-0.4,1.3,0.1,1.7c0.2,0.2,0.5,0.3,0.8,0.3
	c0.4,0,0.7-0.1,0.9-0.4c2.3-2.6,4.8-5.2,7.4-8l1.3-1.3l1.8,0.6c4.7,1.6,9.5,3.3,14.3,4.9c7.7,2.6,13.4,9.2,15.1,17.1l8.1,38.5
	c0.8,3.6-0.1,7.3-2.3,10.3l-15.2,20.1l1.9-41.4c0.1-2.2-0.7-4.3-2.2-5.9c-1.5-1.6-3.6-2.5-5.8-2.5H74.5c-2.2,0-4.3,0.9-5.8,2.5
	C67.2,156.7,66.4,158.7,66.5,161z M192.2,236.2c0,3.2-2.6,5.8-5.8,5.8H76.2c-3.2,0-5.8-2.6-5.8-5.8c0-3.2,2.6-5.8,5.8-5.8h110.3
	C189.6,230.4,192.2,233,192.2,236.2z M185.2,228H77.4c-3,0-5.4-2.3-5.5-5.3L69,160.8c-0.1-1.5,0.5-3,1.5-4.1c1.1-1.1,2.5-1.7,4-1.7
	h113.6c1.5,0,3,0.6,4,1.7c1.1,1.1,1.6,2.6,1.5,4.1l-2.9,61.9C190.6,225.7,188.2,228,185.2,228z"/>
<g>
	<g>
		<path class="st2" d="M99.4,71.4c0-0.3,0.1-0.5,0.1-0.8c-0.7,0.5-1.2,0.5-2.3,0.2c-1-0.3-1.7-0.8-2.1-1.4c-0.4-0.6-0.5-1.2-0.5-1.9
			c0.1-1.3,1.2-2.1,3.1-1.7c0.7,0.2,1.4,0.3,2.2,0.5c0-0.2,0-0.4,0.1-0.6c0.1-1.1-0.4-1.7-1.6-2c-0.9-0.2-1.4,0-1.9,0.5
			c-0.3-0.4-0.7-0.8-1-1.2c0.9-0.8,1.7-0.9,3.1-0.7c2.3,0.3,3.3,1.5,3.1,3.6c-0.2,2-0.4,4-0.6,6C100.5,71.7,100,71.5,99.4,71.4z
			 M99.8,67.6c-0.6-0.1-1.3-0.3-1.9-0.4c-1-0.2-1.5,0.1-1.6,0.8c-0.1,0.7,0.4,1.3,1.4,1.6c0.6,0.2,1.1,0.3,1.6-0.1
			c0.3-0.2,0.4-0.6,0.5-1.2C99.7,68,99.7,67.8,99.8,67.6z"/>
		<path class="st2" d="M108.3,73.7c0-0.3,0.1-0.7,0.1-1c-0.7,0.7-1.4,0.8-2.3,0.6c-0.8-0.2-1.5-0.7-1.9-1.3
			c-0.7-1.1-0.7-2.7-0.6-4.1c0.1-1.4,0.4-2.9,1.3-3.8c0.5-0.4,1.2-0.7,2.1-0.5c0.9,0.1,1.5,0.5,2.1,1.4c0.1-1.6,0.3-3.3,0.4-4.9
			c0.6,0.1,1.1,0.1,1.7,0.2c-0.4,4.6-0.8,9.2-1.2,13.8C109.4,73.9,108.9,73.8,108.3,73.7z M107.3,65.4c-1.5-0.2-1.9,1.2-2,2.8
			c-0.2,1.7-0.1,3.2,1.4,3.5c1.5,0.3,1.8-1.1,2-2.9C108.9,67.1,108.8,65.6,107.3,65.4z"/>
		<path class="st2" d="M115.3,75.2c-1.4-0.2-2.5-0.7-3.4-2.1c0.4-0.4,0.8-0.7,1.2-1.1c0.6,0.9,1.5,1.3,2.3,1.4
			c1,0.2,1.9-0.2,1.9-1.1c0.1-0.7-0.2-1.2-1-1.4c-0.4-0.1-0.9-0.2-1.3-0.3c-1.5-0.4-2.4-1.4-2.2-3.1c0.2-1.9,1.6-2.8,3.4-2.6
			c1.2,0.2,2.3,0.6,3,1.5c-0.4,0.4-0.8,0.8-1.1,1.2c-0.5-0.6-1.2-0.9-2-1c-1-0.1-1.5,0.3-1.6,1.1c0,0.6,0.2,1.1,1.1,1.3
			c0.4,0.1,0.9,0.2,1.3,0.3c1.5,0.4,2.4,1.4,2.2,3.2C118.9,74.6,117.3,75.5,115.3,75.2z"/>
		<path class="st2" d="M121.8,76c-0.7-0.1-1.2-0.8-1.1-1.6c0.1-0.8,0.7-1.4,1.3-1.3c0.7,0.1,1.2,0.7,1.1,1.5
			C123.1,75.4,122.5,76,121.8,76z"/>
		<path class="st2" d="M128,76.2c-1.6,0-2.2-1.4-2.1-2.9c0.1-1.8,0.3-3.7,0.4-5.5c-0.3,0-0.6-0.1-0.9-0.1c0-0.5,0.1-1,0.1-1.5
			c0.3,0,0.6,0.1,0.9,0.1c0.1-1,0.2-2,0.2-3c0.6,0.1,1.1,0.1,1.7,0.2c-0.1,1-0.2,2-0.2,3c0.5,0,1.1,0.1,1.6,0.1c0,0.5-0.1,1-0.1,1.5
			c-0.5,0-1.1-0.1-1.6-0.1c-0.1,1.8-0.3,3.6-0.4,5.4c-0.1,0.7,0.2,1.2,0.8,1.2c0.2,0,0.5,0,0.7,0c0,0.6-0.1,1.1-0.1,1.7
			C128.6,76.3,128.3,76.3,128,76.2z"/>
		<path class="st2" d="M135.6,76c-0.5-1-1-2-1.5-3.1c-0.7,1.1-1.3,2.2-2,3.3c-0.7,0-1.3,0-2,0c1.1-1.7,2.1-3.3,3.2-5
			c-0.8-1.5-1.6-3.1-2.4-4.8c0.7,0,1.3,0.1,2,0.1c0.5,1.1,0.9,2.1,1.4,3.1c0.6-1,1.2-2,1.8-3c0.7,0,1.3,0,2,0c-1,1.4-2,2.9-3.1,4.5
			c0.8,1.6,1.6,3.1,2.4,4.5C136.9,75.9,136.3,75.9,135.6,76z"/>
		<path class="st2" d="M141.7,75.1c-1.5,0.3-2.1-0.8-2-2.1c0.1-1.6,0.3-3.2,0.4-4.8c-0.3,0-0.6,0-0.9,0c0-0.5,0.1-0.9,0.1-1.4
			c0.3,0,0.6,0,0.9,0c0.1-0.9,0.2-1.7,0.2-2.6c0.6,0,1.1,0,1.7,0c-0.1,0.8-0.2,1.7-0.2,2.5c0.5,0,1.1,0,1.6-0.1
			c0,0.4-0.1,0.8-0.1,1.3c-0.5,0-1.1,0.1-1.6,0.1c-0.1,1.5-0.3,3-0.4,4.6c-0.1,0.6,0.2,1,0.8,0.9c0.2,0,0.4-0.1,0.7-0.1
			c0,0.5-0.1,1-0.1,1.4C142.3,75,142,75.1,141.7,75.1z"/>
	</g>
</g>
<g>
	<g>
		<g>
			<polygon class="st4" points="105.9,207.7 105.5,214.5 106.4,214.5 106.5,209 109.1,214.5 109.5,214.4 112.3,209 112.3,214.5 
				113.4,214.5 113.2,207.7 112.2,207.7 109.4,213.1 106.9,207.7 			"/>
			<path class="st4" d="M119,212.1h-2l1-2.5L119,212.1z M117.9,208.7l-2.8,5.9h0.9l0.8-1.8h2.5l0.7,1.8h1l-2.3-5.9H117.9z"/>
			<rect x="122.8" y="208.7" class="st4" width="1" height="5.9"/>
			<g>
				<path class="st4" d="M127.5,209.2c0.3,0,0.5,0,0.8,0c0.4,0,0.7,0,0.9,0.1c0.4,0.2,0.6,0.5,0.6,1c0,0.8-0.5,1.2-1.6,1.2
					c-0.2,0-0.4,0-0.6,0V209.2z M126.6,214.5h1v-2.5c0.2,0,0.3,0,0.4,0c0.3,0,0.4,0,0.6,0c0.9,1.6,1.3,2.2,1.9,2.4
					c0.3,0.1,0.6,0.2,0.8,0.2c0.2,0,0.4,0,0.4-0.1l0.1-0.3l0,0c-0.3,0-0.6-0.1-0.8-0.4c-0.4-0.3-1-1.2-1.4-2
					c0.9-0.3,1.3-0.8,1.3-1.6c0-0.6-0.2-1-0.7-1.3c-0.4-0.2-0.8-0.3-1.6-0.3c-0.2,0-0.5,0-0.9,0c-0.6,0-0.6,0-1,0V214.5z"/>
				<path class="st4" d="M142.7,208.7v3.2c0,1.3,0.1,1.6,0.3,2.1c0.4,0.5,1,0.8,1.9,0.8c0.8,0,1.5-0.2,2-0.6c0.5-0.4,0.7-1,0.7-2.4
					l0-3H147v3c0,0.9,0,1.3-0.2,1.6c-0.2,0.4-0.8,0.7-1.5,0.7c-0.6,0-1.1-0.2-1.3-0.4c-0.2-0.3-0.3-0.5-0.3-1.7v-3.2H142.7z"/>
			</g>
			<polygon class="st4" points="150.3,208.7 149.9,214.5 150.7,214.5 150.8,209.9 153,214.5 153.4,214.5 155.7,209.9 155.8,214.5 
				156.8,214.5 156.6,208.7 155.7,208.7 153.4,213.2 151.2,208.7 			"/>
			<g>
				<path class="st4" d="M162.1,209.1c0.6,0,1.1,0.2,1.4,0.5c0.5,0.5,0.8,1.2,0.8,2c0,1.4-0.9,2.4-2.1,2.4c-1.3,0-2.3-1.1-2.3-2.6
					C159.9,210.1,160.8,209.1,162.1,209.1 M162.3,208.5c-1.9,0-3.4,1.3-3.4,3.1c0,0.9,0.4,1.8,1.1,2.4c0.5,0.4,1.3,0.7,2,0.7
					c1.9,0,3.3-1.3,3.3-3.2C165.4,209.8,164.1,208.5,162.3,208.5"/>
			</g>
			<polygon class="st4" points="167.5,208.7 167.5,214.5 168.3,214.5 168.2,210 172.3,214.7 172.8,214.5 172.8,208.7 172,208.7 
				172.1,213.1 168.2,208.7 			"/>
			<polygon class="st4" points="174.1,208.7 174.1,209.3 176.5,209.3 176.5,214.5 177.5,214.5 177.5,209.3 179.9,209.3 179.9,208.7 
							"/>
			<g>
				<path class="st4" d="M135.3,213.9v-5.5c0.6,0,1.1,0,1.3,0c0.9,0,1.3,0.1,1.8,0.4c0.7,0.4,1.1,1.1,1.1,2.3c0,0.9-0.3,1.8-0.8,2.2
					c-0.5,0.4-1.1,0.6-2.2,0.6H135.3z M134.3,214.5h2c1.3,0,2.2-0.2,2.8-0.6c1-0.6,1.5-1.7,1.5-3c0-1.1-0.3-2-1-2.6
					c-0.6-0.5-1.4-0.7-2.8-0.7c-0.5,0-1.1,0-2.5,0.1V214.5z"/>
			</g>
		</g>
		<g>
			<g>
				<g>
					<path class="st3" d="M110.9,223.6h-0.6l0,0l-3.7-4.6v4.7h-0.8v-6.1h0.6l0,0l3.8,4.7v-4.7h0.8V223.6L110.9,223.6z"/>
				</g>
			</g>
			<g>
				<g>
					<path class="st3" d="M116.9,223.6h-4.2v-6.1h4.1v0.7h-3.3v2h2.9v0.7h-2.9v2.1h3.4V223.6L116.9,223.6z"/>
				</g>
			</g>
			<g>
				<g>
					<path class="st3" d="M120.6,223.6h-0.8v-5.4h-2.1v-0.7h5v0.7h-2.1V223.6L120.6,223.6z"/>
				</g>
			</g>
			<g>
				<g>
					<path class="st3" d="M128.1,223.6h-4.2v-6.1h0.8v5.4h3.4V223.6L128.1,223.6z"/>
				</g>
			</g>
			<g>
				<g>
					<path class="st3" d="M133.5,223.6h-4.2v-6.1h4.1v0.7h-3.3v2h2.9v0.7h-2.9v2.1h3.4V223.6L133.5,223.6z"/>
				</g>
			</g>
			<g>
				<g>
					<path class="st3" d="M137.2,223.6h-0.8v-5.4h-2.1v-0.7h5v0.7h-2.1V223.6L137.2,223.6z"/>
				</g>
			</g>
			<g>
				<g>
					<path class="st3" d="M141.3,223.6h-0.8v-6.1h0.8V223.6L141.3,223.6z"/>
				</g>
			</g>
			<g>
				<path class="st3" d="M147.8,223.6H147l-1.8-2.4l-1.8,2.4h-0.9l2.3-3l-2.3-3.1h0.9l1.9,2.5l1.9-2.5h0.9l-2.3,3.1L147.8,223.6
					L147.8,223.6z"/>
			</g>
		</g>
	</g>
	<g>
		<path class="st4" d="M100.9,215.6c0-0.2,0-0.3,0-0.5H84.1c0,0.2,0,0.3,0,0.5c0,0.2,0,0.4,0,0.5h16.8
			C100.9,216,100.9,215.8,100.9,215.6z"/>
		<path class="st4" d="M92.5,209.3c-1.5,0-3-0.3-4.3-1c-0.3,0.2-0.6,0.4-0.8,0.6c1.5,0.8,3.3,1.3,5.2,1.3c1.9,0,3.6-0.5,5-1.3
			c-0.3-0.2-0.5-0.4-0.8-0.5C95.5,209,94.1,209.3,92.5,209.3z"/>
		<path class="st4" d="M92.4,212.2c-2.8,0-5.3-0.4-7-1.2c-0.2,0.3-0.4,0.6-0.5,0.9c1.8,0.8,4.6,1.3,7.5,1.3c3,0,5.8-0.5,7.6-1.4
			c-0.2-0.3-0.3-0.6-0.5-0.9C97.9,211.7,95.3,212.2,92.4,212.2z"/>
		<path class="st4" d="M88.3,222.9c1.3-0.6,2.8-0.9,4.2-0.9c1.5,0,2.9,0.3,4.1,1c0.3-0.2,0.6-0.3,0.8-0.5c-1.4-0.9-3.1-1.3-4.9-1.3
			c-1.8,0-3.6,0.4-5.1,1.3C87.7,222.6,88,222.8,88.3,222.9z"/>
		<path class="st4" d="M84.9,219.4c0.2,0.3,0.3,0.6,0.5,0.9c1.7-0.8,4.2-1.2,7-1.2c2.8,0,5.4,0.5,7,1.2c0.2-0.3,0.4-0.6,0.5-0.9
			c-1.8-0.9-4.5-1.4-7.6-1.4C89.5,218.1,86.8,218.5,84.9,219.4z"/>
	</g>
</g>
</svg>
